<?xml version="1.0" encoding="UTF-8"?>
<svg version="1.1" xmlns="http://www.w3.org/2000/svg" width="256" height="256">
<path d="M0 0 C1.59134766 0.02707031 1.59134766 0.02707031 3.21484375 0.0546875 C5.8108572 0.10146252 8.40493528 0.16698858 11 0.25 C11.00808685 1.03847321 11.01617371 1.82694641 11.02450562 2.63931274 C11.10257121 10.08395647 11.18989762 17.52840756 11.28752708 24.97281837 C11.33739077 28.79971341 11.3837213 32.62658217 11.421875 36.45361328 C11.45885375 40.14957785 11.50524707 43.84531713 11.55806351 47.5410881 C11.57654079 48.94837858 11.59167316 50.35571722 11.60334396 51.7630806 C11.62032026 53.74010019 11.6504862 55.71699302 11.68115234 57.69384766 C11.69447601 58.81747711 11.70779968 59.94110657 11.7215271 61.0987854 C12.01459531 64.41516134 12.82524026 67.14521774 14 70.25 C14.03738281 69.28578125 14.07476562 68.3215625 14.11328125 67.328125 C14.17902344 66.06484375 14.24476562 64.8015625 14.3125 63.5 C14.37050781 62.24703125 14.42851563 60.9940625 14.48828125 59.703125 C15.03658257 56.0031375 15.28244864 54.74880012 18 52.25 C20.81498434 51.86854593 23.23761428 51.74366116 26.05151367 51.79589844 C27.28112068 51.79502228 27.28112068 51.79502228 28.53556824 51.79412842 C31.24679825 51.79691658 33.95693067 51.82804231 36.66796875 51.859375 C38.5469757 51.86683481 40.42599043 51.87252897 42.30500793 51.87652588 C47.25195779 51.89180273 52.1984383 51.9311022 57.14520264 51.9753418 C62.19244029 52.01625029 67.23975374 52.03452744 72.28710938 52.0546875 C82.19161253 52.09759448 92.09576724 52.16587061 102 52.25 C102.01799048 54.49451806 102.03083731 56.73907776 102.04150391 58.98364258 C102.04920807 60.23357498 102.05691223 61.48350739 102.06484985 62.77131653 C101.79307373 77.34996338 94.87377518 89.81737834 84.953125 100.05859375 C83.13058372 102.10348507 82.20686687 103.8314388 81 106.25 C71.39250325 116.89148744 57.17344388 123.00671545 43 124.25 C37.92950481 124.42328587 33.08163061 124.4216874 28.0625 123.625 C25.1091554 123.06506609 25.1091554 123.06506609 22.75 123.875 C20.4762621 125.66150835 19.41055961 127.74946251 18 130.25 C9.42357325 134.53821338 -5.7769664 131.25696998 -14.50390625 128.5703125 C-24.95020926 124.62522824 -33.16658455 119.16674966 -41 111.25 C-41.62390625 110.65960938 -42.2478125 110.06921875 -42.890625 109.4609375 C-47.01631807 105.24232342 -49.66373078 100.46899866 -52.3125 95.25 C-52.65039551 94.58540771 -52.98829102 93.92081543 -53.33642578 93.23608398 C-57.89104045 83.8558839 -58.31837991 75.32653506 -58.3359375 65.00390625 C-58.34237823 63.6244239 -58.3491075 62.24494287 -58.35610962 60.86546326 C-58.36802918 57.98506505 -58.3717958 55.10478633 -58.37060547 52.22436523 C-58.37040219 48.55499955 -58.39773626 44.88640754 -58.43214989 41.21722507 C-58.45451095 38.37139953 -58.45844028 35.5257578 -58.45738602 32.67985344 C-58.46085517 30.6764488 -58.48245065 28.67310152 -58.50448608 26.66981506 C-58.46568499 18.88340175 -58.12521174 11.38570104 -52.33773804 5.58351135 C-45.99521452 0.256545 -37.35986312 1.10429298 -29.5 1.1875 C-28.67757812 1.19201172 -27.85515625 1.19652344 -27.0078125 1.20117188 C-25.00517604 1.21281511 -23.00257773 1.23074444 -21 1.25 C-20.505 2.735 -20.505 2.735 -20 4.25 C-18.9275 3.59515625 -17.855 2.9403125 -16.75 2.265625 C-11.25535127 -0.48169936 -6.02291198 -0.19598963 0 0 Z M15 72.25 C16 74.25 16 74.25 16 74.25 Z M16 74.25 C17 76.25 17 76.25 17 76.25 Z M29 86.25 C33.52099819 89.26399879 36.86032065 89.37108347 42.25 89.3125 C43.86648437 89.29896484 43.86648437 89.29896484 45.515625 89.28515625 C46.74539062 89.26775391 46.74539062 89.26775391 48 89.25 C47.67 88.26 47.34 87.27 47 86.25 C41.06 86.25 35.12 86.25 29 86.25 Z " fill="#CCAA4F" transform="translate(109,85.75)"/>
<path d="M0 0 C1.02802734 0.00322266 2.05605469 0.00644531 3.11523438 0.00976562 C4.72301758 0.02233398 4.72301758 0.02233398 6.36328125 0.03515625 C7.44673828 0.03966797 8.53019531 0.04417969 9.64648438 0.04882812 C12.3229721 0.06061882 14.99934902 0.07707562 17.67578125 0.09765625 C17.66911942 0.8912001 17.66245758 1.68474396 17.65559387 2.50233459 C17.5950309 10.04702559 17.54958028 17.59159573 17.52034473 25.13646793 C17.5048083 29.01369308 17.48379548 32.89071438 17.44946289 36.76782227 C17.41643322 40.52206307 17.39883835 44.27611006 17.39114952 48.03048515 C17.385683 49.4499459 17.37501331 50.86939822 17.35859108 52.28877449 C17.13423977 72.5174354 21.36709196 91.07871144 35.67578125 106.09765625 C43.72281173 113.44966655 52.4246483 117.68061193 62.67578125 121.09765625 C62.67578125 121.75765625 62.67578125 122.41765625 62.67578125 123.09765625 C61.19078125 123.59265625 61.19078125 123.59265625 59.67578125 124.09765625 C58.64564848 125.74586869 57.64463497 127.41269327 56.67578125 129.09765625 C48.0993545 133.38586963 32.89881485 130.10462623 24.171875 127.41796875 C13.72557199 123.47288449 5.5091967 118.01440591 -2.32421875 110.09765625 C-2.948125 109.50726563 -3.57203125 108.916875 -4.21484375 108.30859375 C-8.34053682 104.08997967 -10.98794953 99.31665491 -13.63671875 94.09765625 C-13.97461426 93.43306396 -14.31250977 92.76847168 -14.66064453 92.08374023 C-19.2152592 82.70354015 -19.64259866 74.17419131 -19.66015625 63.8515625 C-19.66659698 62.47208015 -19.67332625 61.09259912 -19.68032837 59.71311951 C-19.69224793 56.8327213 -19.69601455 53.95244258 -19.69482422 51.07202148 C-19.69462094 47.4026558 -19.72195501 43.73406379 -19.75636864 40.06488132 C-19.7787297 37.21905578 -19.78265903 34.37341405 -19.78160477 31.52750969 C-19.78507392 29.52410505 -19.8066694 27.52075777 -19.82870483 25.51747131 C-19.79320625 18.39378889 -19.46420327 12.12294037 -15.32421875 6.09765625 C-10.68603923 1.70920441 -6.31485461 -0.0348887 0 0 Z " fill="#D8B54F" transform="translate(70.32421875,86.90234375)"/>
<path d="M0 0 C1.60142058 1.52286989 3.18602267 3.06370071 4.75 4.625 C5.3996875 5.26308594 6.049375 5.90117188 6.71875 6.55859375 C11.86027545 11.98200108 17.75 19.93630575 17.75 27.625 C16.265 28.12 16.265 28.12 14.75 28.625 C14.3778958 29.94803717 14.04369827 31.28237935 13.75 32.625 C9.48797914 34.75601043 4.01908044 34.0574037 -0.66894531 34.13989258 C-2.0424664 34.17131405 -3.4157254 34.21884045 -4.78808594 34.28344727 C-12.36065176 34.63457229 -17.89651765 34.64465637 -23.953125 29.74609375 C-25.38571172 28.37270354 -26.81802937 26.99903257 -28.25 25.625 C-35.45966836 20.9834152 -42.83710359 20.74316628 -51.25 21.625 C-53.78807724 22.39880404 -55.86123707 23.43061853 -58.25 24.625 C-61.5625 24.9375 -61.5625 24.9375 -64.25 24.625 C-67.69103566 21.18396434 -66.55365487 16.22448305 -66.57226562 11.57617188 C-66.57009033 10.8561499 -66.56791504 10.13612793 -66.56567383 9.39428711 C-66.56251683 7.19920079 -66.58595761 5.00546615 -66.61132812 2.81054688 C-66.61360143 1.41666837 -66.61430447 0.02278623 -66.61328125 -1.37109375 C-66.61626221 -2.64138428 -66.61924316 -3.9116748 -66.62231445 -5.22045898 C-66.25 -8.375 -66.25 -8.375 -64.95385742 -10.24243164 C-46.56510738 -22.46558846 -14.95909464 -13.06952479 0 0 Z " fill="#CFAD53" transform="translate(190.25,98.375)"/>
<path d="M0 0 C1.29550781 -0.03738281 2.59101562 -0.07476562 3.92578125 -0.11328125 C8.27508598 0.37900766 10.32989299 1.55995659 13.6875 4.3125 C14.3475 5.3025 15.0075 6.2925 15.6875 7.3125 C16.595 6.52875 17.5025 5.745 18.4375 4.9375 C23.20934052 0.816365 26.68866985 0.00111108 33.0625 -0.0625 C34.34898438 -0.09085938 35.63546875 -0.11921875 36.9609375 -0.1484375 C42.4858735 0.53494033 45.48535153 2.92053862 49.0625 7.0625 C51.0609276 11.05935521 51.41755898 13.93214611 50.6875 18.3125 C49.4375 21.4375 49.4375 21.4375 47.6875 24.3125 C47.06875 25.34375 46.45 26.375 45.8125 27.4375 C42.94654531 31.31496812 40.28231657 33.78089448 35.6875 35.3125 C28.79645641 36.04738402 24.27464383 35.47546991 18.6875 31.3125 C16.8430318 29.39312954 15.29047561 27.44980081 13.6875 25.3125 C13.295625 26.055 12.90375 26.7975 12.5 27.5625 C9.90042735 31.50667919 7.17407615 33.81697462 2.6875 35.3125 C-3.28139281 35.84672104 -8.24843698 35.84556722 -13.3125 32.3125 C-17.6433344 27.78480949 -19.98339671 24.21957903 -20.6875 18 C-20.07601366 11.98705104 -17.850204 7.35572516 -13.25 3.375 C-8.76588709 0.2265803 -5.38901254 0.10127719 0 0 Z " fill="#B08C2F" transform="translate(70.3125,45.6875)"/>
<path d="M0 0 C1.07461739 0.00539291 1.07461739 0.00539291 2.17094421 0.01089478 C2.92211517 0.01074875 3.67328613 0.01060272 4.44721985 0.01045227 C6.94166404 0.01115153 9.43603448 0.01894452 11.9304657 0.02676392 C13.65539509 0.02862805 15.38032501 0.03005197 17.10525513 0.03105164 C21.65418448 0.03487719 26.20308211 0.04470779 30.7519989 0.05575562 C35.39025951 0.06596893 40.02852522 0.07054908 44.66679382 0.07559204 C53.77422967 0.08633003 62.88164192 0.1034069 71.98905945 0.12442017 C72.02828722 2.31567994 72.05593997 4.50714835 72.0789032 6.69863892 C72.10391907 8.52914795 72.10391907 8.52914795 72.12944031 10.39663696 C71.95064791 15.14443012 71.57530554 23.53817407 67.98905945 27.12442017 C65.98558869 27.22902412 63.9784022 27.26297833 61.97221375 27.26968384 C60.03966988 27.27925362 60.03966988 27.27925362 58.06808472 27.28901672 C56.64981626 27.2905456 55.2315473 27.29165945 53.8132782 27.29238892 C52.36697353 27.29560042 50.9206692 27.29896441 49.47436523 27.30247498 C46.43701932 27.30847391 43.39970189 27.31031418 40.36235046 27.3097229 C36.47169669 27.30962143 32.58122606 27.3232541 28.69061565 27.34049511 C25.70088871 27.35162101 22.71120587 27.3536419 19.72146034 27.35311317 C18.28735029 27.35429315 16.8532391 27.35871595 15.4191494 27.36644554 C13.41081977 27.37625326 11.40243668 27.37210111 9.39408875 27.36734009 C8.25126938 27.36876511 7.10845001 27.37019012 5.93099976 27.37165833 C3.0661499 27.13089878 1.41216623 26.61616196 -1.01094055 25.12442017 C-1.01094055 24.46442017 -1.01094055 23.80442017 -1.01094055 23.12442017 C-2.00094055 22.79442017 -2.99094055 22.46442017 -4.01094055 22.12442017 C-5.78402271 18.57825585 -5.44215226 14.47473381 -5.63594055 10.56192017 C-5.68750305 9.67311157 -5.73906555 8.78430298 -5.79219055 7.86856079 C-5.83601868 7.02358032 -5.8798468 6.17859985 -5.92500305 5.30801392 C-5.96576965 4.52998413 -6.00653625 3.75195435 -6.04853821 2.9503479 C-5.968552 -0.93417717 -3.20038227 0.00677605 0 0 Z " fill="#D0AE51" transform="translate(139.0109405517578,137.87557983398438)"/>
<path d="M0 0 C0 0.66 0 1.32 0 2 C-0.78375 2.61875 -1.5675 3.2375 -2.375 3.875 C-5.02201447 6.01782124 -5.83106188 6.90371527 -7 10 C-7.31631853 12.9865483 -7.31631853 12.9865483 -7.29052734 16.32226562 C-7.30328705 17.60460083 -7.31604675 18.88693604 -7.32919312 20.20812988 C-7.3322528 21.60750172 -7.33447947 23.00687558 -7.3359375 24.40625 C-7.34237134 25.85152313 -7.34910013 27.29679498 -7.35610962 28.74206543 C-7.36808322 31.77501435 -7.37179088 34.80784943 -7.37060547 37.84082031 C-7.37040344 41.69608043 -7.39758279 45.55059369 -7.43214989 49.4056778 C-7.4545871 52.39488963 -7.45843776 55.38392737 -7.45738602 58.37321472 C-7.45972151 59.79235888 -7.46842707 61.21150938 -7.48405075 62.63056946 C-7.65322365 79.59914476 -2.22794505 93.46782893 9.375 105.9375 C24.23073344 119.49549121 41.651322 123.01966698 61 124 C60.6875 125.875 60.6875 125.875 60 128 C53.44027681 132.37314879 41.48716449 130.74521481 33.8671875 129.34765625 C20.40798075 126.07417486 9.70151691 119.80472454 0 110 C-0.62390625 109.40960938 -1.2478125 108.81921875 -1.890625 108.2109375 C-6.01631807 103.99232342 -8.66373078 99.21899866 -11.3125 94 C-11.65039551 93.33540771 -11.98829102 92.67081543 -12.33642578 91.98608398 C-16.89104045 82.6058839 -17.31837991 74.07653506 -17.3359375 63.75390625 C-17.34237823 62.3744239 -17.3491075 60.99494287 -17.35610962 59.61546326 C-17.36802918 56.73506505 -17.3717958 53.85478633 -17.37060547 50.97436523 C-17.37040219 47.30499955 -17.39773626 43.63640754 -17.43214989 39.96722507 C-17.45451095 37.12139953 -17.45844028 34.2757578 -17.45738602 31.42985344 C-17.46085517 29.4264488 -17.48245065 27.42310152 -17.50448608 25.41981506 C-17.4689875 18.29613264 -17.13998452 12.02528412 -13 6 C-9.2070149 2.41123583 -5.32438361 0 0 0 Z " fill="#040404" transform="translate(68,87)"/>
<path d="M0 0 C0 0.66 0 1.32 0 2 C-0.78375 2.61875 -1.5675 3.2375 -2.375 3.875 C-5.64272958 6.5203049 -6.82116673 8.34490391 -7.27415466 12.53729248 C-7.28479446 13.49274963 -7.29543427 14.44820679 -7.30639648 15.43261719 C-7.32238388 16.52185486 -7.33837128 17.61109253 -7.35484314 18.7333374 C-7.36020584 19.90930481 -7.36556854 21.08527222 -7.37109375 22.296875 C-7.38012222 23.51844299 -7.3891507 24.74001099 -7.39845276 25.99859619 C-7.41297148 28.59099883 -7.421846 31.18343824 -7.42553711 33.77587891 C-7.43733049 37.69368918 -7.48641616 41.60987075 -7.53710938 45.52734375 C-7.67827307 67.31581193 -4.8417019 84.23858973 10.51171875 100.67578125 C23.46097838 112.77124355 38.74848234 116.65594886 55.94140625 116.3125 C68.59148274 115.74448908 80.04829761 110.72747398 90 103 C90.66 103.33 91.32 103.66 92 104 C80.89185963 116.47296308 65.85402677 123.16095331 49.2265625 124.16796875 C37.9045692 124.2529687 28.51452209 120.91864124 18 117 C18 116.34 18 115.68 18 115 C17.34 114.79375 16.68 114.5875 16 114.375 C3.61519812 108.69863247 -3.93154203 97.25933271 -9 85 C-12.46798741 74.73150603 -13.15770341 65.0761549 -13.16796875 54.3125 C-13.17129715 53.09602783 -13.17462555 51.87955566 -13.17805481 50.6262207 C-13.18310446 48.06103899 -13.18546374 45.49585074 -13.18530273 42.93066406 C-13.18749242 39.01356188 -13.2056781 35.09674004 -13.22460938 31.1796875 C-13.22754308 28.68229263 -13.22952803 26.18489642 -13.23046875 23.6875 C-13.23765427 22.52065674 -13.24483978 21.35381348 -13.25224304 20.15161133 C-13.2361358 14.40298682 -13.11290299 9.38396554 -11 4 C-9.16015625 2.44140625 -9.16015625 2.44140625 -7.0625 1.5625 C-6.02802734 1.10037109 -6.02802734 1.10037109 -4.97265625 0.62890625 C-3 0 -3 0 0 0 Z " fill="#080705" transform="translate(100,86)"/>
<path d="M0 0 C-0.15847412 0.53012695 -0.31694824 1.06025391 -0.48022461 1.60644531 C-1.11475447 4.52844192 -1.21771132 7.30782847 -1.31640625 10.296875 C-1.35830078 11.50214844 -1.40019531 12.70742187 -1.44335938 13.94921875 C-1.48267578 15.20347656 -1.52199219 16.45773438 -1.5625 17.75 C-1.60568359 19.01972656 -1.64886719 20.28945312 -1.69335938 21.59765625 C-1.79939722 24.73166365 -1.90146058 27.86574933 -2 31 C-1.39671875 30.79503906 -0.7934375 30.59007813 -0.171875 30.37890625 C0.62734375 30.10949219 1.4265625 29.84007813 2.25 29.5625 C3.03890625 29.29566406 3.8278125 29.02882813 4.640625 28.75390625 C13.38383779 25.9601313 21.65943232 26.10138071 30.23413086 29.54907227 C33.15638044 31.08203451 34.79659862 32.70079253 37.03125 35.1015625 C42.5760243 40.17667538 47.62603744 40.06130511 54.875 39.875 C57.1015407 39.86480988 59.32812985 39.86186081 61.5546875 39.8671875 C62.52905762 39.84769043 63.50342773 39.82819336 64.50732422 39.80810547 C67 40 67 40 70 42 C69.625 43.9375 69.625 43.9375 69 46 C64.73797914 48.13101043 59.26908044 47.4324037 54.58105469 47.51489258 C53.2075336 47.54631405 51.8342746 47.59384045 50.46191406 47.65844727 C42.88934824 48.00957229 37.35348235 48.01965637 31.296875 43.12109375 C29.86428828 41.74770354 28.43197063 40.37403257 27 39 C19.79033164 34.3584152 12.41289641 34.11816628 4 35 C1.46192276 35.77380404 -0.61123707 36.80561853 -3 38 C-6.3125 38.3125 -6.3125 38.3125 -9 38 C-12.44103566 34.55896434 -11.30365487 29.59948305 -11.32226562 24.95117188 C-11.32009033 24.2311499 -11.31791504 23.51112793 -11.31567383 22.76928711 C-11.31251683 20.57420079 -11.33595761 18.38046615 -11.36132812 16.18554688 C-11.36360143 14.79166837 -11.36430447 13.39778623 -11.36328125 12.00390625 C-11.36626221 10.73361572 -11.36924316 9.4633252 -11.37231445 8.15454102 C-11 5 -11 5 -9.66870117 3.13647461 C-6.77026903 1.16248754 -3.51558328 0 0 0 Z " fill="#0B0906" transform="translate(135,85)"/>
<path d="M0 0 C0.01458252 0.59014893 0.02916504 1.18029785 0.04418945 1.78833008 C0.11868844 4.46371229 0.21533995 7.13784892 0.3125 9.8125 C0.33505859 10.74126953 0.35761719 11.67003906 0.38085938 12.62695312 C0.41630859 13.51962891 0.45175781 14.41230469 0.48828125 15.33203125 C0.51446533 16.15421143 0.54064941 16.9763916 0.56762695 17.82348633 C1.08878594 20.44693768 2.06007974 21.23816655 4 23 C4 23.66 4 24.32 4 25 C8.49665722 26.71559211 12.34659549 27.29093835 17.1484375 27.4140625 C17.80582916 27.43342865 18.46322083 27.4527948 19.14053345 27.4727478 C21.21856135 27.53202461 23.29664624 27.57871794 25.375 27.625 C26.7929915 27.66322778 28.21096097 27.70228223 29.62890625 27.7421875 C33.08573461 27.83768171 36.54272983 27.92190189 40 28 C35.18737272 32.93029849 29.96526915 36.12934136 23 37 C22.67 36.01 22.34 35.02 22 34 C20.20755859 34.10441406 20.20755859 34.10441406 18.37890625 34.2109375 C2.62042732 34.86002059 2.62042732 34.86002059 -3.296875 29.8046875 C-3.85890625 29.20914063 -4.4209375 28.61359375 -5 28 C-5.81210938 27.19949219 -5.81210938 27.19949219 -6.640625 26.3828125 C-11.03031059 20.95600339 -10.63633964 14.26324495 -10.46875 7.609375 C-9.52177435 0.31766252 -7.11761891 -0.53717879 0 0 Z " fill="#080705" transform="translate(134,138)"/>
<path d="M0 0 C-1.12047806 3.36143418 -2.49707183 4.57528834 -5 7 C-6.85618207 10.71236414 -6.44809981 14.94843088 -6 19 C-3.83592096 23.40830916 -1.57493538 26.12843553 3 28 C7.760391 28.60956226 11.65979547 28.17010226 16 26 C16 26.99 16 27.98 16 29 C10.48836852 34.14418938 6.81796104 35.31730321 -0.5 35.2109375 C-5.61363379 34.77947465 -8.27418562 32.75880594 -11.75 29.125 C-15.42908988 24.01515295 -16.64547006 20.34712226 -16 14 C-14.02558672 8.11041495 -11.03965145 4.53847868 -6 1 C-3 0 -3 0 0 0 Z " fill="#040404" transform="translate(66,46)"/>
<path d="M0 0 C-0.42152344 0.48210938 -0.84304687 0.96421875 -1.27734375 1.4609375 C-1.82519531 2.09257813 -2.37304688 2.72421875 -2.9375 3.375 C-3.48277344 4.00148438 -4.02804688 4.62796875 -4.58984375 5.2734375 C-7.35144694 8.65468019 -7.33870365 11.43903694 -7.27734375 15.6796875 C-6.84203773 19.32154351 -5.43146136 21.31259534 -3 24 C3.181034 28.12068933 8.97759545 27.37022528 16 26 C10.70930233 32.95348837 10.70930233 32.95348837 6 34 C-0.91012166 34.75340338 -5.37695628 34.16105235 -11 30 C-13.5 27.625 -13.5 27.625 -15 25 C-14.75 22.4375 -14.75 22.4375 -14 19 C-14.0411966 16.97862016 -14.10580283 14.95764831 -14.1875 12.9375 C-14.21115461 9.11491465 -14.19072325 7.35943997 -12.375 3.9375 C-8.26086846 0.58123479 -5.24961057 -1.65181712 0 0 Z " fill="#040303" transform="translate(100,47)"/>
<path d="M0 0 C-0.33 9.24 -0.66 18.48 -1 28 C-8 27 -8 27 -9.7421875 25.66015625 C-13.88815779 19.81290849 -14.79077081 16.14988612 -14 9 C-10.75372695 2.38722155 -7.32660135 0 0 0 Z " fill="#CFAB3E" transform="translate(73,46)"/>
<path d="M0 0 C1.30475618 2.60951236 1.11301572 4.52701285 1.09765625 7.4453125 C1.09443359 8.52167969 1.09121094 9.59804688 1.08789062 10.70703125 C1.07951172 11.83496094 1.07113281 12.96289062 1.0625 14.125 C1.05798828 15.26066406 1.05347656 16.39632812 1.04882812 17.56640625 C1.03701615 20.37765638 1.02054507 23.1888023 1 26 C-4.53387356 26.35208601 -4.53387356 26.35208601 -6.64453125 24.7578125 C-10.62976423 19.18648346 -11.8510719 15.83157718 -11 9 C-9.1875 5.625 -9.1875 5.625 -7 3 C-6.505 2.38125 -6.01 1.7625 -5.5 1.125 C-4 0 -4 0 0 0 Z " fill="#E1C266" transform="translate(103,47)"/>
<path d="M0 0 C0 6.93 0 13.86 0 21 C-4 20 -4 20 -5.75 18.0625 C-7.53356268 13.69277143 -7.73154541 9.6567192 -7 5 C-5.3135359 2.69516573 -3.16070167 0 0 0 Z " fill="#E4C364" transform="translate(66,50)"/>
<path d="M0 0 C1.32 0 2.64 0 4 0 C5.30475618 2.60951236 5.11301572 4.52701285 5.09765625 7.4453125 C5.09443359 8.52167969 5.09121094 9.59804688 5.08789062 10.70703125 C5.07951172 11.83496094 5.07113281 12.96289062 5.0625 14.125 C5.05798828 15.26066406 5.05347656 16.39632812 5.04882812 17.56640625 C5.03701615 20.37765638 5.02054507 23.1888023 5 26 C3.02 26 1.04 26 -1 26 C-1.33 25.34 -1.66 24.68 -2 24 C-1.34 24 -0.68 24 0 24 C0.33 16.74 0.66 9.48 1 2 C0.34 1.67 -0.32 1.34 -1 1 C-0.67 0.67 -0.34 0.34 0 0 Z " fill="#D3B046" transform="translate(99,47)"/>
<path d="M0 0 C0 7.92 0 15.84 0 24 C-1.32 23.67 -2.64 23.34 -4 23 C-3.34 23 -2.68 23 -2 23 C-2.33 16.4 -2.66 9.8 -3 3 C-3.99 3.33 -4.98 3.66 -6 4 C-5.67 3.01 -5.34 2.02 -5 1 C-3 0 -3 0 0 0 Z " fill="#D8B54F" transform="translate(68,48)"/>
<path d="M0 0 C0 7.59 0 15.18 0 23 C-1.32 22.34 -2.64 21.68 -4 21 C-3.34 21 -2.68 21 -2 21 C-2.33 15.06 -2.66 9.12 -3 3 C-3.99 3 -4.98 3 -6 3 C-3.375 0 -3.375 0 0 0 Z " fill="#DEBC58" transform="translate(100,49)"/>
<path d="" fill="#070605" transform="translate(0,0)"/>
<path d="" fill="#060505" transform="translate(0,0)"/>
<path d="" fill="#060505" transform="translate(0,0)"/>
<path d="" fill="#090706" transform="translate(0,0)"/>
<path d="" fill="#0E0C07" transform="translate(0,0)"/>
<path d="" fill="#110E08" transform="translate(0,0)"/>
</svg>
